<?xml version="1.0" encoding="utf-8"?>
<!-- Generator: Adobe Illustrator 25.0.1, SVG Export Plug-In . SVG Version: 6.00 Build 0)  -->
<svg version="1.1" id="Layer_1" xmlns="http://www.w3.org/2000/svg" xmlns:xlink="http://www.w3.org/1999/xlink" x="0px" y="0px"
	 viewBox="0 0 216 29.6" style="enable-background:new 0 0 216 29.6;" xml:space="preserve">
<style type="text/css">
	.st0{fill:#231C1D;}
</style>
<g id="img_p_logo" transform="translate(-77 -122.953)">
	<g id="그룹_381">
		<path id="패스_2709" class="st0" d="M97,125.6h5.5v10.6h2.7v-10.7h5.5v-2.1H97V125.6z"/>
		<path id="패스_2710" class="st0" d="M82.9,123.5L77,136.2h2.7l1.4-3.2l0,0h6.2l0,0l1.4,3.2h2.7l-5.9-12.7H82.9z M86.4,130.9
			h-4.3l0-0.1l2.1-4.6l0.1-0.1l0.1,0.1L86.4,130.9L86.4,130.9z"/>
		<path id="패스_2711" class="st0" d="M125.5,136.2h2.6l4.4-12.7h-2.7l-2.9,9l-0.1,0.2l-0.1-0.2l-2.9-9h-2.7l-2.9,9l-0.1,0.2
			l-0.1-0.2l-2.9-9h-2.7l4.4,12.7h2.6l3-8.7l0.1-0.2l0.1,0.2L125.5,136.2L125.5,136.2z"/>
		<path id="패스_2712" class="st0" d="M135.7,134.8c3,2.5,7.4,2.5,10.3,0c1.4-1.2,2.2-3,2.2-4.9c0-1.8-0.7-3.5-1.9-4.7
			c-3.1-2.9-7.9-2.9-11,0c-1.2,1.3-1.9,3-1.9,4.7C133.5,131.8,134.3,133.6,135.7,134.8L135.7,134.8z M140.9,125.2
			c2.6,0,4.7,2.1,4.7,4.7c0,1.2-0.5,2.4-1.4,3.2c-1.9,1.8-4.8,1.8-6.7,0c-0.9-0.8-1.4-2-1.4-3.2
			C136.2,127.3,138.3,125.2,140.9,125.2L140.9,125.2z"/>
		<path id="패스_2713" class="st0" d="M239.6,134.1v-10.6H237v12.7h11v-2.1L239.6,134.1L239.6,134.1z"/>
		<path id="패스_2714" class="st0" d="M211.3,134.1h-8.2v-3.6h7.7v-2.1h-7.7v-2.9h7.9v-2.1h-10.5v12.8h10.7L211.3,134.1z"/>
		<path id="패스_2715" class="st0" d="M284.9,134.1L284.9,134.1l-0.1-3.6h7.7v-2.1h-7.7v-2.9h7.9v-2.1h-10.5v12.8H293v-2.1
			L284.9,134.1z"/>
		<path id="패스_2716" class="st0" d="M273.4,134.5L273.4,134.5c-2.6,0-4.8-2-4.9-4.6c0-1.2,0.5-2.4,1.3-3.2
			c0.9-0.9,2.2-1.4,3.5-1.4h0c1.7,0,3.4,0.7,4.6,1.9l1.2-2c-1.6-1.4-3.7-2.2-5.8-2.2c-1.8,0-3.5,0.7-5,1.8c-1.6,1.2-2.5,3.1-2.5,5.2
			c0,4.2,3.6,6.6,7.2,6.8c2.3,0.1,4.5-0.7,6.2-2.3l-1.3-1.9C276.8,133.8,275.1,134.5,273.4,134.5L273.4,134.5z"/>
		<path id="패스_2717" class="st0" d="M224.3,132.1h4.5c1.2,0.1,2.5-0.2,3.6-0.8c2-1.5,2.3-4.3,0.8-6.2c-0.2-0.3-0.5-0.6-0.8-0.8
			c-1.1-0.6-2.4-0.9-3.6-0.8h-7.2v12.8h2.7L224.3,132.1z M224.3,125.6h4.8c0.6,0,1.1,0.2,1.6,0.5c0.5,0.4,0.8,1,0.8,1.6
			c0,1.2-1,2.2-2.2,2.2c0,0-0.1,0-0.1,0h-4.8V125.6z"/>
		<path id="패스_2718" class="st0" d="M194.5,127.3L194.5,127.3l0.2,0v8.9h2.6v-12.7H194l-4,6.8l-0.1,0.1l-0.1-0.1l-4-6.8h-3.2
			v12.7h2.6v-8.9h0.2l0,0l3.9,6.4h1.4L194.5,127.3z"/>
		<path id="패스_2719" class="st0" d="M156.8,134.6h-0.2c-1.9-0.1-3.7-0.9-5.2-2.1l-1,2.2c1.8,1.2,4,1.9,6.2,2c2.3,0,4-0.6,5-1.6
			c0.7-0.7,1.1-1.7,1-2.6c0-1.8-1.2-2.9-3.6-3.4c-0.5-0.1-1.4-0.3-2.2-0.5c-0.4-0.1-0.8-0.2-1.1-0.2c-1.2-0.3-2.4-0.6-2.4-1.5
			c0-0.8,0.9-1.7,2.6-1.7h0.2c1.9,0,3.8,0.7,5.3,2l1-2.1c-1.8-1.4-3.9-2.1-6.2-2.1c-1.7,0-3.3,0.6-4.6,1.7c-0.7,0.7-1,1.6-1,2.5
			c0.1,2.7,3.1,3.4,6.5,4h0c1.3,0.2,2.7,0.5,2.8,1.5c0,0.3-0.1,0.7-0.4,0.9C158.9,134.3,157.8,134.7,156.8,134.6z"/>
		<path id="패스_2720" class="st0" d="M256.2,123.5l-5.9,12.7h2.7l1.4-3.2l0,0h6.2l0,0l1.4,3.2h2.7l-5.9-12.7L256.2,123.5z
			 M259.8,130.9h-4.3l0-0.1l2.1-4.6l0.1-0.1l0.1,0.1L259.8,130.9L259.8,130.9z"/>
		<path id="패스_2721" class="st0" d="M177.8,125.1c-3.1-2.9-7.9-2.9-11,0c-1.2,1.3-1.9,3-1.9,4.7c0,1.9,0.8,3.7,2.2,4.9
			c3,2.5,7.4,2.5,10.3,0c1.4-1.2,2.2-3,2.2-4.9C179.7,128.1,179.1,126.4,177.8,125.1z M175.7,133.1c-1.9,1.8-4.8,1.8-6.7,0
			c-0.9-0.8-1.4-2-1.4-3.2c0-2.6,2.2-4.7,4.8-4.7c2.6,0,4.6,2.1,4.7,4.7C177.1,131.1,176.6,132.3,175.7,133.1z"/>
	</g>
	<g id="그룹_382">
		<path id="패스_2722" class="st0" d="M128.9,144.3c-2.3,0-4.2,1.8-4.2,4.1c0,2.3,1.8,4.2,4.1,4.2c0,0,0.1,0,0.1,0
			c1.3,0,2.5-0.6,3.3-1.6l0.1-0.1l-1.2-0.9l0,0l-0.1,0.1c-0.5,0.7-1.3,1.1-2.1,1.1c-1.5,0-2.7-1.3-2.7-2.8c0-1.5,1.2-2.7,2.7-2.7
			c0.8,0,1.6,0.4,2.1,1.1l0.1,0.1l1.2-0.8l0,0l0-0.1C131.5,144.9,130.2,144.2,128.9,144.3L128.9,144.3z"/>
		<path id="패스_2723" class="st0" d="M137.8,144.3c-2.3,0-4.1,1.9-4.1,4.2c0,2.3,1.9,4.1,4.2,4.1c2.3,0,4.1-1.9,4.1-4.2
			c0.1-2.2-1.7-4.1-3.9-4.2C138,144.3,137.9,144.3,137.8,144.3z M137.8,151.2c-1.5,0-2.8-1.2-2.8-2.7c0-1.5,1.2-2.8,2.7-2.8
			c1.5,0,2.8,1.2,2.8,2.7c0,0,0,0,0,0.1c0.1,1.4-1,2.7-2.5,2.7C137.9,151.2,137.9,151.2,137.8,151.2L137.8,151.2z"/>
		<path id="패스_2724" class="st0" d="M143.9,152.5h1.5v-3.3h4.1v-1.4h-4.1v-1.9h4.3v-1.4h-5.8L143.9,152.5z"/>
		<path id="패스_2725" class="st0" d="M151.7,152.5h1.5v-3.3h4.1v-1.4h-4.1v-1.9h4.3v-1.4h-5.8V152.5z"/>
		<path id="패스_2726" class="st0" d="M160.9,149.1h4.1v-1.4h-4.1v-1.9h4.4v-1.4h-5.9v8h6.1v-1.4h-4.6L160.9,149.1z"/>
		<path id="패스_2727" class="st0" d="M168.9,149.1h4.1v-1.4h-4.1v-1.9h4.4v-1.4h-5.9v8h6.1v-1.4h-4.6L168.9,149.1z"/>
		<path id="패스_2728" class="st0" d="M184,150.4c0-0.1,0.1-0.2,0.2-0.2l1-1.6l0,0l-1.1-0.7l0,0l-1.1,1.7l-1.3-1.2
			c0.8-0.4,1.3-1.2,1.4-2.1c0-1.1-0.9-2-2.1-1.9c-0.1,0-0.1,0-0.2,0c-1.1-0.1-2.2,0.7-2.3,1.8c0,0,0,0.1,0,0.1c0,0.8,0.4,1.5,1,2
			c-0.8,0.5-1.3,1.3-1.3,2.2c0,1.4,0.9,2.2,2.5,2.2c0.9,0,1.8-0.4,2.4-1l0.9,0.9l0,0h2L184,150.4L184,150.4z M180.9,145.6
			c0.5,0,0.8,0.2,0.8,0.7c0,0.4-0.4,0.8-0.9,1.1c-0.6-0.5-0.7-0.8-0.7-1.1c0-0.4,0.3-0.7,0.7-0.7
			C180.8,145.6,180.9,145.6,180.9,145.6L180.9,145.6z M180.9,151.3c-0.6,0-1.1-0.4-1.1-0.9c0.1-0.5,0.4-1,0.8-1.2l1.6,1.5
			C181.9,151.1,181.4,151.3,180.9,151.3L180.9,151.3z"/>
		<path id="패스_2729" class="st0" d="M193,144.4h-3.2v8h3.2c2.2,0.1,4.1-1.6,4.2-3.8c0.1-2.2-1.6-4.1-3.8-4.2
			C193.2,144.4,193.1,144.4,193,144.4z M193,151.1h-1.8v-5.2h1.8c1.4,0,2.6,1.1,2.7,2.6s-1.1,2.6-2.6,2.7
			C193.1,151.1,193,151.1,193,151.1z"/>
		<path id="패스_2730" class="st0" d="M200.6,149.1h4.1v-1.4h-4.1v-1.9h4.4v-1.4h-5.9v8h6.1v-1.4h-4.6L200.6,149.1z"/>
		<path id="패스_2731" class="st0" d="M210.6,147.8l-0.5-0.1c-1.1-0.2-1.6-0.4-1.6-0.9c0-0.6,0.7-1.1,1.7-1.1
			c0.8,0,1.5,0.2,2.2,0.7l0.1,0.1l0.7-1.2l0,0l-0.1-0.1c-0.9-0.6-1.9-0.9-2.9-0.9c-1.9,0-3.2,1-3.2,2.5c0,1.6,1.3,2.1,2.4,2.3
			l0.6,0.1c1.2,0.2,1.7,0.4,1.7,1c0,0.6-0.7,1.1-1.7,1.1c-0.9,0-1.7-0.3-2.4-0.8l-0.1-0.1l-0.8,1.2l0,0l0.1,0.1
			c0.9,0.7,2.1,1.1,3.2,1.1c2.2,0,3.3-1.3,3.3-2.6C213.3,148.8,212.4,148,210.6,147.8L210.6,147.8z"/>
		<path id="패스_2732" class="st0" d="M218.6,147.8l-0.5-0.1c-1.1-0.2-1.6-0.4-1.6-0.9c0-0.6,0.7-1.1,1.7-1.1
			c0.8,0,1.5,0.2,2.2,0.7l0.1,0.1l0.7-1.2l0,0l-0.1-0.1c-0.9-0.6-1.9-0.9-2.9-0.9c-1.9,0-3.2,1-3.2,2.5c0,1.6,1.3,2.1,2.4,2.3
			l0.6,0.1c1.2,0.2,1.7,0.4,1.7,1c0,0.6-0.7,1.1-1.7,1.1c-0.9,0-1.7-0.3-2.4-0.8l-0.1-0.1l-0.8,1.2l0,0l0.1,0.1
			c0.9,0.7,2.1,1.1,3.2,1.1c2.2,0,3.3-1.3,3.3-2.6C221.3,148.8,220.4,148,218.6,147.8L218.6,147.8z"/>
		<path id="패스_2733" class="st0" d="M224.7,149.1h4.1v-1.4h-4.1v-1.9h4.4v-1.4h-5.9v8h6.1v-1.4h-4.6L224.7,149.1z"/>
		<path id="패스_2734" class="st0" d="M237.5,146.8c0-1.5-1-2.4-2.9-2.4h-3.3v8h1.5v-3.3h1.2l2.1,3.3l0,0h1.7l-2.2-3.4
			C236.6,148.9,237.5,148,237.5,146.8L237.5,146.8z M232.7,147.8v-2h1.8c1,0,1.4,0.3,1.4,1c0,0.7-0.4,1-1.4,1L232.7,147.8z"/>
		<path id="패스_2735" class="st0" d="M238.8,145.8h2.5v6.6h1.5v-6.6h2.5v-1.4h-6.6L238.8,145.8z"/>
	</g>
</g>
</svg>
